<?xml version="1.0" standalone="no"?>
<!DOCTYPE svg PUBLIC "-//W3C//DTD SVG 20010904//EN"
 "http://www.w3.org/TR/2001/REC-SVG-20010904/DTD/svg10.dtd">
<svg version="1.0" xmlns="http://www.w3.org/2000/svg"
 width="394.000000pt" height="394.000000pt" viewBox="0 0 394.000000 394.000000"
 preserveAspectRatio="xMidYMid meet">
<metadata>
Created by potrace 1.14, written by Peter Selinger 2001-2017
</metadata>
<g transform="translate(0.000000,394.000000) scale(0.100000,-0.100000)"
fill="#000000" stroke="none">
<path d="M212 3198 c117 -156 215 -285 218 -288 3 -3 48 -62 100 -132 l95
-128 150 -1 c83 0 368 -2 635 -4 267 -2 624 -4 795 -5 335 -1 307 3 445 -63
118 -56 228 -126 258 -164 118 -151 159 -322 139 -575 -10 -119 -79 -257 -171
-341 -51 -47 -156 -112 -227 -140 -133 -52 -161 -55 -501 -55 -175 0 -318 3
-319 7 -4 21 -23 922 -21 999 0 41 -6 48 -40 43 -4 0 -183 -1 -397 -1 l-391
-1 0 -522 0 -522 125 -175 c68 -96 133 -186 142 -199 10 -13 60 -83 111 -155
50 -72 122 -173 158 -224 l65 -93 532 5 c621 6 637 7 757 50 167 61 323 135
428 203 117 76 326 318 434 502 42 71 118 226 118 240 0 6 12 58 26 114 14 56
28 113 30 127 3 14 10 45 15 70 14 59 19 290 9 360 -16 107 -22 135 -46 220
-36 123 -72 217 -110 283 -19 32 -34 60 -34 63 0 13 -143 211 -206 284 -213
249 -496 419 -811 485 -57 12 -276 15 -1396 15 l-1327 0 212 -282z"/>
</g>
</svg>
