<svg xmlns="http://www.w3.org/2000/svg" width="127" height="48" fill="none"><g clip-path="url(#a)" style="mix-blend-mode:luminosity"><path fill="#0D0C22" fill-rule="evenodd" d="M125.59 30.563c-5.255 7.898-13.579 5.606-16.078 3.812-1.064.64-2.93 2.042-5.417 1.88-5.298-.345-7.195-7.054-7.195-7.054.038.026-1.578.494-2.452.486-.01 1.967-1.93 6.668-7.11 6.607-5.811-.067-6.993-7.74-6.993-7.74s-.578.71-2.777 1.42c.11-1.512.03 6.09-6.936 6.202-5.507.089-6.994-7.741-6.994-7.741s-.955.88-2.807 1.184c.118-1.536-.073 6.583-7.04 6.557-4.708-.017-6.317-4.823-6.192-5.49.16-.85-1.59 5.61-6.164 5.509-1.887-.05-3.294-1.26-4.177-2.875-1.182 1.199-2.898 2.875-4.823 2.875-3.455 0-4.978-2.561-4.72-9.877.022-.868-.049-1.209-1.022-1.339-.584-.086-1.183-.25-1.815-.336-.203.6-1.924 11.357-7.84 11.561-1.986.069-3.071-1.456-3.963-2.587-1.366 1.602-3.17 2.638-5.74 2.638-4.352 0-7.317-3.119-7.317-6.966s2.965-6.965 7.318-6.965c.77 0 .985.098 1.688.28C7.58 10.937 10.994 9.113 13.98 9.113c2.868 0 7.767 5.899.873 20.862 1.53 4.463 4.83 4.21 6.416-4.977.323-1.867-.54-4.388.802-4.74 2.453-.642 2.713 1.287 3.864 1.608 1.216.34 1.926.306 3.094.523 1.995.345 2.773 1.295 2.53 3.41-.292 2.678-.802 6.574.755 7.05 1.123.344 3.172-1.72 3.532-2.849s.435-1.515.467-2.344c.049-1.77.11-3.067.45-4.406.146-.518.312-.861.974-.885.544-.012 1.539-.157 1.977.145.584.389.51.783.444 1.822-.68 14.803 4.547 7.413 6.105 1.496-.555-6.691-.174-16.592 4.557-16.759 2.46-.086 3.548 1.661 3.667 2.965.339 3.683-1.557 9.783-4.05 13.886-1.425 8.37 6.23 10.026 7.454 3.344-2.003-.844-4.167-4.26-2.406-5.924.988-.934 5.102.408 5.17 3.335 2.017-.479 2.287-1.488 2.315-1.321-.555-6.691-.04-16.118 4.69-16.284 2.46-.087 3.548 1.66 3.668 2.964.338 3.683-1.557 9.783-4.05 13.886-1.425 8.37 6.23 10.026 7.453 3.344-1.482-.253-4.612-3.886-2.806-5.924.965-1.09 5.064 1.175 5.522 3.432 1.939-.486 2.202-1.464 2.23-1.3-.555-6.69-.04-16.118 4.69-16.284 2.46-.086 3.548 1.66 3.668 2.965.339 3.682-1.557 9.783-4.05 13.885-1.425 8.372 6.23 10.026 7.454 3.345-2.038-.301-4.934-4.137-2.603-6.1.931-.784 4.49 1.252 5.322 3.574 1.157-.04 1.878-.393 2.032-.43-1.847-7.854-.472-17.279 4.617-17.357 2.751-.043 5.441 1.318 4.26 8.79-1.127 7.13-5.177 10.123-5.167 10.169.235.854 2.314 8.002 7.547 4.23-.271-.543-.542-1.099-.694-1.772-.867-3.92.837-8.347 5.468-9.062 2.653-.41 5.153.735 5.548 3.316.65 4.224-3.653 7.282-5.289 7.946-.733-.37 6.643 3.824 11.021-4.579.254-.48.56-.44.956-.192.28.175 1.875 1.514 1.133 2.647M10.502 28.252c-.223-.59-.68-1.891-.842-2.454C8.77 25.11 8.135 25 6.992 25c-2.54 0-4.034 2.08-4.034 4.325 0 2.243 1.628 4.325 4.168 4.325 2.2 0 3.875-1.326 4.386-3.204-.357-.732-.712-1.404-1.01-2.194m3.416-16.05c-1.784 0-2.39 3.772-2.272 6.99.104 2.846 1 5.35 1.466 6.473.118.14.096.05.202.199 3.098-6.017 1.813-13.663.604-13.663m37.156.118c-2.306-.235-2.29 8.28-2.005 10.19 1.198-1.698 3.279-9.733 2.005-10.19m16.841 0c-2.306-.235-2.291 8.28-2.005 10.19 1.198-1.698 3.279-9.733 2.005-10.19m16.707.118c-2.306-.234-2.291 8.28-2.005 10.19 1.198-1.698 3.279-9.732 2.005-10.19m16.44-.617c-3.593.64-2.757 11.258-2.21 13.12 4.232-5.152 4.319-13.313 2.21-13.12m13.466 13.27c-.182-.678-1.096-1.04-1.726-.95-1.805.218-3.554 2.21-2.877 5.241.151.676.528 1.297.522 1.276 4.038-2.4 4.381-4.292 4.081-5.568m-76.084-5.07a2.85 2.85 0 0 1-1.449-.388 2.4 2.4 0 0 1-.96-1.037 2.07 2.07 0 0 1-.149-1.335c.1-.449.35-.86.714-1.183a2.7 2.7 0 0 1 1.334-.633 2.9 2.9 0 0 1 1.507.131c.476.175.883.472 1.17.852s.44.826.44 1.283c0 .304-.068.604-.2.885a2.3 2.3 0 0 1-.564.749 2.7 2.7 0 0 1-.846.5 2.9 2.9 0 0 1-.997.177" clip-rule="evenodd"/></g><defs><clipPath id="a"><path fill="#fff" d="M.018 0h126.369v48H.017z"/></clipPath></defs></svg>