<svg xmlns="http://www.w3.org/2000/svg" width="129" height="48" fill="none"><g clip-path="url(#a)" style="mix-blend-mode:luminosity"><path fill="#33475B" d="M14.18 13.106v9.088H4.765v-9.088H.293V34.8h4.47v-8.793h9.418V34.8h4.47V13.106zm18.78 14.681c0 .87-.39 1.703-1.084 2.318-.693.615-1.634.96-2.615.96-.98 0-1.922-.345-2.615-.96s-1.084-1.449-1.084-2.318v-9.292h-4.24v9.292c0 1.864.835 3.652 2.323 4.97 1.487 1.32 3.505 2.06 5.608 2.06 2.104 0 4.121-.74 5.609-2.06 1.487-1.318 2.323-3.106 2.323-4.97v-9.292H32.96zm31.421-8.334c0-1.905 1.422-2.508 2.98-2.508 1.254 0 2.912.846 3.997 1.873l2.777-2.9c-1.386-1.662-4.199-2.811-6.501-2.811-4.6 0-7.927 2.387-7.927 6.346 0 7.344 10.128 5.015 10.128 9.125 0 1.267-1.388 2.387-2.979 2.387-2.508 0-3.32-1.087-4.473-2.236l-3.082 2.84c1.972 2.146 4.403 3.235 7.317 3.235 4.37 0 7.885-2.417 7.885-6.195 0-8.154-10.129-5.62-10.129-9.156m62.668 11.881c-2.506 0-3.218-.96-3.218-2.433v-6.513h3.895v-3.3h-3.895v-4.355l-4.299 1.71v13.268c0 3.394 2.641 5.104 6.264 5.104a10 10 0 0 0 1.696-.12l1.049-3.423a26 26 0 0 1-1.492.058M49.103 18.605c-2.101 0-3.567.54-4.984 1.772v-7.14h-4.247V26.47c0 4.955 4.041 8.348 8.582 8.348 5.038 0 9.47-3.453 9.47-8.105 0-4.593-4.08-8.107-8.821-8.107zm-.027 12.427a5.27 5.27 0 0 1-2.677-.72c-.793-.47-1.41-1.136-1.775-1.917a3.82 3.82 0 0 1-.274-2.468 4.14 4.14 0 0 1 1.319-2.186 5.04 5.04 0 0 1 2.467-1.17 5.4 5.4 0 0 1 2.784.244c.88.323 1.634.87 2.163 1.573a3.93 3.93 0 0 1 .812 2.373c0 1.133-.508 2.219-1.411 3.02-.904.8-2.13 1.25-3.408 1.25m46.144-4.516c0-4.66-4.422-8.105-9.469-8.105-4.54 0-8.582 3.393-8.582 8.348V40h4.247v-7.15c1.415 1.23 2.883 1.773 4.981 1.773 4.743 0 8.822-3.512 8.822-8.108zm-4.02-.046c0 .844-.284 1.67-.813 2.373a4.74 4.74 0 0 1-2.163 1.573c-.88.323-1.85.408-2.784.243a5.04 5.04 0 0 1-2.468-1.17 4.15 4.15 0 0 1-1.319-2.186 3.82 3.82 0 0 1 .275-2.468c.365-.78.982-1.447 1.775-1.917a5.27 5.27 0 0 1 2.677-.72c1.278 0 2.504.45 3.408 1.252.903.8 1.411 1.887 1.411 3.02"/><path fill="#FF7A59" d="M108.9 18.35v-3.743a3.16 3.16 0 0 0 1.362-1.058c.332-.46.51-.994.513-1.54v-.087c-.003-.763-.346-1.494-.954-2.034-.609-.54-1.434-.843-2.295-.845h-.098c-.861.002-1.686.306-2.295.845-.608.54-.951 1.27-.954 2.034v.087c.003.546.181 1.08.513 1.54s.804.827 1.362 1.058v3.743a9.8 9.8 0 0 0-4.381 1.708l-11.596-7.997q.124-.396.131-.81a3 3 0 0 0-.615-1.804 3.6 3.6 0 0 0-1.643-1.198 4.1 4.1 0 0 0-2.117-.187 3.83 3.83 0 0 0-1.878.887 3.15 3.15 0 0 0-1.005 1.662c-.142.63-.07 1.283.206 1.876a3.37 3.37 0 0 0 1.348 1.46 4 4 0 0 0 3.847.112l11.401 7.867c-1.027 1.373-1.562 2.989-1.537 4.636s.61 3.25 1.68 4.597l-3.47 3.075a3.3 3.3 0 0 0-.861-.124c-.596 0-1.178.157-1.673.45s-.882.71-1.11 1.198a2.4 2.4 0 0 0-.171 1.542c.116.518.403.994.824 1.367.422.373.958.628 1.542.73a3.37 3.37 0 0 0 1.74-.151 2.96 2.96 0 0 0 1.352-.983c.331-.44.508-.956.508-1.484a2.4 2.4 0 0 0-.14-.763l3.432-3.042a9.9 9.9 0 0 0 3.805 1.525 10.4 10.4 0 0 0 4.173-.112 9.7 9.7 0 0 0 3.693-1.726A8.3 8.3 0 0 0 116 29.67a7.4 7.4 0 0 0 .728-3.643 7.5 7.5 0 0 0-1.153-3.557 8.65 8.65 0 0 0-2.799-2.746 10 10 0 0 0-3.876-1.375m-1.422 12.312a5.2 5.2 0 0 1-2.638-.71c-.781-.462-1.39-1.12-1.749-1.888a3.77 3.77 0 0 1-.271-2.432 4.1 4.1 0 0 1 1.3-2.155 4.96 4.96 0 0 1 2.432-1.152 5.3 5.3 0 0 1 2.743.24c.868.318 1.61.857 2.132 1.55.522.692.8 1.506.8 2.338 0 1.116-.5 2.187-1.391 2.976-.89.79-2.098 1.233-3.358 1.233"/></g><defs><clipPath id="a"><path fill="#fff" d="M.293 0h128.626v48H.293z"/></clipPath></defs></svg>