<svg xmlns="http://www.w3.org/2000/svg" width="111" height="48" fill="none"><g clip-path="url(#a)" style="mix-blend-mode:luminosity"><path fill="#2D8CFF" fill-rule="evenodd" d="M90.36 20.597c.422.646.56 1.38.605 2.206l.06 1.1v7.698l.061 1.102c.123 1.799 1.62 3.13 3.666 3.243L95.99 36V23.904l.061-1.1c.051-.817.188-1.566.617-2.216a4.7 4.7 0 0 1 1.818-1.605 5.46 5.46 0 0 1 2.48-.584 5.46 5.46 0 0 1 2.478.592 4.7 4.7 0 0 1 1.811 1.61c.423.646.554 1.395.605 2.202l.061 1.098v7.7l.062 1.102c.127 1.808 1.613 3.139 3.665 3.243l1.237.054V22.803c0-2.333-1.046-4.571-2.907-6.222-1.861-1.65-4.386-2.578-7.019-2.579a11 11 0 0 0-4.087.778 9.9 9.9 0 0 0-3.36 2.203 9.9 9.9 0 0 0-3.362-2.202 11 11 0 0 0-4.086-.78c-2.062 0-3.975.555-5.56 1.512-.966-.956-3.13-1.512-4.371-1.512V36l1.241-.054c2.078-.122 3.579-1.416 3.66-3.243l.066-1.102v-7.697l.061-1.1c.053-.831.183-1.561.606-2.211a4.74 4.74 0 0 1 1.818-1.605 5.5 5.5 0 0 1 2.479-.587c.87 0 1.726.203 2.48.588.754.386 1.38.94 1.816 1.608M5.39 35.947 6.63 36h18.616l-.061-1.097c-.168-1.809-1.613-3.13-3.66-3.248l-1.243-.054H9.115l14.89-13.202-.061-1.096c-.096-1.827-1.603-3.147-3.66-3.248l-1.243-.05-18.615-.004.061 1.1c.163 1.792 1.629 3.141 3.66 3.245l1.243.055h11.168L1.668 31.6l.06 1.102c.123 1.813 1.6 3.126 3.662 3.243M71.259 17.22a11 11 0 0 1 2.69 3.569 9.9 9.9 0 0 1 .946 4.21 9.9 9.9 0 0 1-.945 4.209 11 11 0 0 1-2.691 3.569c-2.329 2.062-5.486 3.22-8.778 3.22s-6.45-1.158-8.778-3.22c-4.847-4.296-4.847-11.261 0-15.557a12.6 12.6 0 0 1 4.023-2.383A13.8 13.8 0 0 1 62.474 14a13.8 13.8 0 0 1 4.755.836 12.6 12.6 0 0 1 4.031 2.386m-3.512 3.115c1.396 1.238 2.18 2.917 2.18 4.668 0 1.75-.784 3.429-2.18 4.667s-3.291 1.932-5.266 1.932-3.87-.695-5.266-1.932-2.18-2.917-2.18-4.667.784-3.43 2.18-4.668 3.291-1.932 5.266-1.932 3.869.695 5.266 1.932M36.426 14c1.628 0 3.241.285 4.746.838a12.6 12.6 0 0 1 4.024 2.384c4.848 4.295 4.848 11.261 0 15.556-2.329 2.062-5.486 3.22-8.778 3.22s-6.45-1.158-8.778-3.22c-4.847-4.296-4.847-11.261 0-15.557a12.6 12.6 0 0 1 4.023-2.383A13.8 13.8 0 0 1 36.41 14zm5.258 6.334c1.396 1.238 2.18 2.917 2.18 4.668 0 1.75-.784 3.43-2.18 4.668s-3.291 1.932-5.266 1.932-3.87-.695-5.266-1.932c-1.396-1.239-2.18-2.917-2.18-4.668 0-1.75.784-3.429 2.18-4.667s3.29-1.932 5.266-1.932 3.869.695 5.266 1.932z" clip-rule="evenodd"/></g><defs><clipPath id="a"><path fill="#fff" d="M.426 0h110.573v48H.426z"/></clipPath></defs></svg>