<svg xmlns="http://www.w3.org/2000/svg" xml:space="preserve" width="600" height="80" viewBox="0 0 158.75 21.167"><path d="M288.597 104.393c-2.487.034-2.137 3.834.263 3.66 2.374-.17 2.054-3.691-.263-3.66m-148.432.046-7.144 19.579h6.086c.48-2.023 1.795-7.822 3.55-8.989 1.446-.96 5.062-.271 6.769-.271l-3.44 9.26c1.585 0 4.407.543 5.717-.501 1.285-1.025 1.691-3.57 2.235-5.055 1.63-4.458 4.31-9.33 5.013-14.023l-5.635.272-3.207 7.129-6.504.272 2.646-7.673zm15.61 19.579h5.821l7.144-19.58-5.71.273-2.075 4.755zm9.79 0c1.425 0 4.46.579 5.65-.272 2.609-1.867 1.313-6.615 4.669-8.195.607 2.107 2.641 7.406 4.774 8.27 1.543.626 3.898.197 5.545.197l-4.17-8.467-1.475-3.415 2.47-2.313 6.614-5.384-4.233.226-9.525 6.917 2.646-7.143-5.65.272-2.135 5.02zm26.194-19.58c.013 4.85.849 9.708 1.069 14.553.047 1.048-.136 4.343.898 4.867 2.688 1.365 4.624-1.128 5.882-3.015 3.617-5.425 7.766-10.71 10.936-16.404-6.539 0-8.142 9.295-12.435 13.229l-.794-13.23zm14.023 19.58 5.157-.272 2.167-5.02 5.111-14.287-5.18.272-2.076 4.755zm8.997 0c3.885 0 8.982.866 12.7-.324 2.95-.944 4.589-4.134 3.645-7.084-.745-2.327-2.826-3.825-4.414-5.557-.668-.727-1.726-1.816-1.272-2.898.607-1.449 2.34-1.335 3.628-1.335 2.984-.001 5.81.898 6.88-2.381-5.111 0-18.077-1.711-15.442 7.408.654 2.263 2.783 3.802 4.205 5.556.615.758 1.553 1.855 1.107 2.9-.617 1.445-2.333 1.333-3.629 1.334-2.942 0-6.472-1.039-7.408 2.38m24.87-19.578-6.879 19.579 5.157-.272 2.14-5.02 5.139-14.287zm14.022.137c-5.329 1.137-7.896 6.203-9.334 10.975-.692 2.3-1.277 4.845.442 6.855 1.96 2.292 6.956 2.07 9.686 1.475 5.325-1.161 7.78-6.22 9.254-10.976.75-2.423 1.368-5.046-.61-7.087-1.954-2.017-6.859-1.792-9.438-1.242m8.732 19.442 2.738-.272 1.648-3.697 3.551-9.26c1.084 3.203 2.351 6.353 3.524 9.525.428 1.157.805 2.975 2.06 3.508 2.964 1.257 3.699-1.339 4.521-3.508 1.955-5.157 4.5-10.511 5.77-15.875l-2.535.272-1.711 3.697-3.427 8.995c-1.447-3.093-2.595-6.353-3.863-9.525-.388-.971-.704-2.814-1.752-3.28-2.909-1.291-3.863 1.406-4.613 3.545-1.865 5.323-3.881 10.613-5.911 15.875m25.704-19.15c1.624-.628 2.807 1.86 1.223 2.637-1.7.832-2.881-1.996-1.223-2.637m-.04.365v1.852h.265v-.794l.794.794h.264v-1.852zm1.059.793-.794-.529zm-33.073.351c1.502-.268 3.302.195 3.327 2.03.02 1.355-.891 2.981-1.363 4.233-1.27 3.368-2.09 8.99-6.462 9.475-1.528.17-2.992-.617-2.813-2.331.14-1.35.843-2.708 1.31-3.97 1.162-3.144 2.06-8.734 6-9.437" style="fill:#954b51;stroke:none" transform="translate(-132.683 -103.645)"/></svg>