<svg xmlns="http://www.w3.org/2000/svg" width="525.333" height="525.333" version="1.0" viewBox="0 0 394 394"><path d="M21.2 74.2C32.9 89.8 42.7 102.7 43 103s4.8 6.2 10 13.2l9.5 12.8 15 .1c8.3 0 36.8.2 63.5.4s62.4.4 79.5.5c33.5.1 30.7-.3 44.5 6.3 11.8 5.6 22.8 12.6 25.8 16.4 11.8 15.1 15.9 32.2 13.9 57.5-1 11.9-7.9 25.7-17.1 34.1-5.1 4.7-15.6 11.2-22.7 14-13.3 5.2-16.1 5.5-50.1 5.5-17.5 0-31.8-.3-31.9-.7-.4-2.1-2.3-92.2-2.1-99.9 0-4.1-.6-4.8-4-4.3-.4 0-18.3.1-39.7.1l-39.1.1v104.4l12.5 17.5c6.8 9.6 13.3 18.6 14.2 19.9 1 1.3 6 8.3 11.1 15.5 5 7.2 12.2 17.3 15.8 22.4l6.5 9.3 53.2-.5c62.1-.6 63.7-.7 75.7-5 16.7-6.1 32.3-13.5 42.8-20.3 11.7-7.6 32.6-31.8 43.4-50.2 4.2-7.1 11.8-22.6 11.8-24 0-.6 1.2-5.8 2.6-11.4s2.8-11.3 3-12.7c.3-1.4 1-4.5 1.5-7 1.4-5.9 1.9-29 .9-36-1.6-10.7-2.2-13.5-4.6-22-3.6-12.3-7.2-21.7-11-28.3-1.9-3.2-3.4-6-3.4-6.3 0-1.3-14.3-21.1-20.6-28.4-21.3-24.9-49.6-41.9-81.1-48.5-5.7-1.2-27.6-1.5-139.6-1.5H0z"/></svg>